<svg id="a" width="100" height="100" version="1.1" viewBox="0 0 100 100" xmlns="http://www.w3.org/2000/svg">
 <style type="text/css">.st0{fill:#737373;}
	.st1{fill:#F25022;}
	.st2{fill:#7FBA00;}
	.st3{fill:#00A4EF;}
	.st4{fill:#FFB900;}</style>
 <g stroke-width="4.167">
  <path d="m98.94 51.12c0-3.292-0.2917-6.417-0.7917-9.458h-47.08v18.79h26.96c-1.208 6.167-4.75 11.38-10 14.92v12.5h16.08c9.417-8.708 14.83-21.54 14.83-36.75z" fill="#4285f4"/>
  <path d="m51.06 100c13.5 0 24.79-4.5 33.04-12.12l-16.08-12.5c-4.5 3-10.21 4.833-16.96 4.833-13.04 0-24.08-8.792-28.04-20.67h-16.58v12.88c8.208 16.33 25.08 27.58 44.63 27.58z" fill="#34a853"/>
  <path d="m23.02 59.54c-1.042-3-1.583-6.208-1.583-9.542s0.5833-6.542 1.583-9.542v-12.88h-16.58c-3.417 6.75-5.375 14.33-5.375 22.42s1.958 15.67 5.375 22.42z" fill="#fbbc05"/>
  <path d="m51.06 19.79c7.375 0 13.96 2.542 19.17 7.5l14.25-14.25c-8.625-8.083-19.92-13.04-33.42-13.04-19.54 0-36.42 11.25-44.63 27.58l16.58 12.88c3.958-11.88 15-20.67 28.04-20.67z" fill="#ea4335"/>
 </g>
</svg>
